<svg xmlns="http://www.w3.org/2000/svg" fill="none" viewBox="0 0 72 72" id="Send-Email-Paper-Plane-1--Streamline-Freehand" height="72" width="72"><desc>Send Email Paper Plane 1 Streamline Icon: https://streamlinehq.com</desc><path fill="#ffffff" d="M71.9904 7.4589300000000005c0.0075 -1.4526299999999999 -0.528 -2.85561 -1.5014999999999998 -3.93384 -0.9002999999999999 -0.5200199999999999 -1.8965999999999998 -0.852009 -2.9288999999999996 -0.975885 -1.0323 -0.12387600000000001 -2.0789999999999997 -0.037062 -3.0768000000000004 0.255186 -3.6642 0.808239 -7.2828 1.810629 -10.8405 3.0029189999999994 -1.8318 0.54054 -3.6336000000000004 1.17114 -5.4054 1.8618299999999999 -2.6424000000000003 0.9909600000000001 -5.2251 2.13207 -7.8374999999999995 3.27318 -4.8075 2.09937 -9.4986 4.45503 -14.053740000000001 7.05687 -4.57026 2.5725599999999997 -8.87532 5.59011 -12.852509999999999 9.00876L3.19353 36.2268l-2.372322 2.3724c-0.292662 0.3069 -0.5449428 0.6501 -0.7507299000000001 1.0209 -0.09397074 0.2622 -0.09397074 0.5487 0 0.8109 0.06152970000000001 0.3297 0.2033043 0.639 0.41279790000000005 0.9009 0.209493 0.2619 0.480258 0.46829999999999994 0.78837 0.6006 1.1602080000000001 0.396 2.377554 0.5988 3.603504 0.6006 1.3212899999999999 0 3.66357 0 5.67552 0.3003 1.01754 -0.030600000000000002 2.03289 0.11159999999999999 3.0029399999999997 0.4203l0.5705399999999999 6.6966c0.18018 1.9217999999999997 0.27027 3.4233000000000002 0.27027 4.8347999999999995 0 2.2521 -0.3003 6.156000000000001 -0.3003 9.2187 0 0.27090000000000003 0.10758000000000001 0.5307 0.29904000000000003 0.7221 0.19149 0.1914 0.45116999999999996 0.2991 0.72195 0.2991s0.5304899999999999 -0.1077 0.72195 -0.2991c0.19149 -0.1914 0.29904000000000003 -0.45120000000000005 0.29904000000000003 -0.7221 0 -3.0027 0.39039 -6.9666 0.42041999999999996 -9.2187 0 -1.4715 0 -3.0029999999999997 -0.21020999999999998 -5.0151 -0.21020999999999998 -2.0118 -0.21020999999999998 -4.5342 -0.45042 -6.0057 -0.24024 -1.4715 -0.27027 -2.2824 -4.02393 -3.0029999999999997 -2.22216 -0.2703 -5.2851300000000005 -0.4203 -6.93675 -0.5105999999999999l-1.65162 -0.24 1.74171 -1.7118 10.36008 -9.00873c3.8348400000000002 -3.3296099999999997 8.00061 -6.2577300000000005 12.432089999999999 -8.738520000000001 4.47963 -2.4162299999999997 9.08013 -4.6012200000000005 13.783529999999999 -6.54636 2.5524 -1.08105 5.1348 -2.13207 7.717499999999999 -3.00291 5.4944999999999995 -2.03466 11.1636 -3.5625 16.936500000000002 -4.564439999999999 2.7024 1.17114 2.3121 2.1921299999999997 2.2521 3.00291 -0.1119 1.5158399999999999 -0.38370000000000004 3.0156 -0.8109 4.474349999999999l-3.8735999999999997 13.09275c-0.7808999999999999 2.61255 -1.6215 5.04495 -2.4924 7.417349999999999 -2.1321 5.7354 -4.4745 11.1108 -6.6366000000000005 17.3268 -0.5064 1.4106 -1.1085 2.7852 -1.8018 4.1139 -1.1109 2.1021 -2.3720999999999997 4.1139 -3.5433000000000003 6.005999999999999 -0.33030000000000004 0.6117 -0.7121999999999999 1.1943000000000001 -1.1412 1.7415l-0.3003 0.3603 -0.18 -0.27 -3.0029999999999997 -4.7148c-1.4808 -2.0313 -3.0645000000000002 -3.9858000000000002 -4.7448 -5.8557 -1.6850999999999998 -1.8858000000000001 -3.4797 -3.6705 -5.3751 -5.3451 -1.2912 -1.0812 -4.924799999999999 -4.0839 -6.00585 -1.9217999999999997 -0.3003 0.3903 -0.63063 1.1409 -0.81081 1.3512l-3.51342 5.1051 -3.54345 6.276c-1.2612 2.1921 -2.76267 4.2642 -4.113989999999999 6.4563 -0.5705399999999999 0.9608999999999999 -1.1411099999999998 1.9518 -1.6215899999999999 3.0029999999999997 -0.10325999999999999 0.2151 -0.11696999999999999 0.46229999999999993 -0.03816 0.6873 0.07881 0.2253 0.24375000000000002 0.41009999999999996 0.45858 0.5139 0 0 0.8408100000000001 0.6906 2.07201 -0.2403s1.5915599999999999 -1.1712 2.2822199999999997 -1.7118c0.69069 -0.5406 2.2822199999999997 -1.6515 3.3933 -2.4324 1.11108 -0.7806 2.0119800000000003 -1.3512 3.0029399999999997 -2.0418l4.5643199999999995 -3.1833c2.4024 -1.7115 4.7148 -3.4833 6.966899999999999 -5.3751l0.5105999999999999 0.5706c1.6215 1.8918000000000001 3.1529999999999996 3.8735999999999997 4.4742 5.7354l2.7027 4.6245c0.2751 0.5121 0.5861999999999999 1.0038 0.9309000000000001 1.4715 0.1719 0.18209999999999998 0.3828 0.3225 0.6168 0.41100000000000003 0.2343 0.0882 0.4854 0.12240000000000001 0.7343999999999999 0.0996 0.7116 -0.11699999999999999 1.377 -0.42899999999999994 1.9221000000000001 -0.9009 0.8534999999999999 -0.8276999999999999 1.5909 -1.767 2.1921 -2.7927 1.2311999999999999 -1.8918000000000001 2.5824 -3.9638999999999998 3.7536000000000005 -6.005999999999999 0.8067 -1.4349 1.4994 -2.931 2.0721 -4.4742 2.2221 -6.186 4.6845 -11.5011 6.8466000000000005 -17.1768 0.9608999999999999 -2.4623999999999997 1.8318 -4.9548 2.6424000000000003 -7.6273800000000005l3.9038999999999997 -13.212869999999999c0.7283999999999999 -2.4439200000000003 1.0629 -4.98822 0.9908999999999999 -7.537319999999999ZM27.30699 57.848099999999995c-1.03677 0.6696 -2.03901 1.3911 -3.0029399999999997 2.1621 -1.02099 0.8106 -1.9819200000000001 1.6515 -3.00291 2.5524l-2.25219 2.3121c1.17114 -1.7715 2.40234 -3.4833 3.48339 -5.2851l3.72363 -6.0057 3.45336 -4.9548c0.15015 -0.18030000000000002 0.60057 -0.9309000000000001 0.7808700000000001 -1.2311999999999999 0.18 -0.3003 0.6006 0.3903 0.9309000000000001 0.6306 0.33030000000000004 0.24 1.3512 1.2311999999999999 1.7415 1.5614999999999999 1.0211999999999999 0.9309000000000001 2.0421 1.9817999999999998 3.0029999999999997 3.0027 -2.8527 1.8921000000000001 -5.9457 3.4236 -8.858609999999999 5.2554Z" stroke-width="3"></path><path fill="#ffffff" d="M41.0604 29.019869999999997c-1.5915 1.7418299999999998 -3.0029999999999997 3.5736300000000005 -4.564500000000001 5.46543 -1.5614999999999999 1.8918000000000001 -3.3632999999999997 4.3242 -4.8948 6.606300000000001 -0.33030000000000004 0.4806 -0.6306 0.9908999999999999 -0.9309000000000001 1.4715 -0.7807499999999999 2.3724 0.33030000000000004 2.0118 2.4024 0.2403l0.2703 -0.4206c1.6815 -2.1321 3.5733 -4.1439 5.3451 -6.0057 2.8527 -3.2733 6.005999999999999 -6.276299999999999 9.0087 -9.24906l6.6666 -6.27612c3.2733 -3.00291 6.5463000000000005 -6.186 9.7596 -9.33909 4.8645 -8.528289000000001 -8.378400000000001 3.48339 -15.525299999999998 9.99975 -2.6124 2.49243 -5.1348 4.86474 -7.5372 7.507289999999999Z" stroke-width="3"></path><path fill="#ffffff" d="M39.8595 19.83102c-4.1742 2.8227599999999997 -8.1981 5.82567 -12.221910000000001 9.008790000000001L18.14835 36.5574c-0.60057 0.5403 -1.29126 1.1109 -1.9819200000000001 1.6815 -1.44141 1.8018 -1.2311999999999999 2.4623999999999997 2.04198 1.0209 0.48048 -0.33030000000000004 0.96093 -0.6606000000000001 1.35132 -0.9908999999999999l9.90963 -7.0869 24.68394 -17.026500000000002c2.4324 -1.65159 4.7748 -3.30321 7.2072 -4.89477 0.5706 -2.0119499999999997 -3.6936 -0.60057 -7.2072 1.47144l-1.5915 0.96093c-4.2642 2.67261 -8.558399999999999 5.285159999999999 -12.7023 8.13792Z" stroke-width="3"></path></svg>