<svg xmlns="http://www.w3.org/2000/svg" fill="none" viewBox="0 0 72 72" id="Shop-Street-Sign--Streamline-Freehand" height="72" width="72"><desc>Shop Street Sign Streamline Icon: https://streamlinehq.com</desc><path fill="#ffffff" fill-rule="evenodd" d="M61.9221 7.05888c-0.1179 -0.57216 -0.6924 -0.92757 -1.257 -0.77817 -1.5860999999999998 0.32907 -0.6881999999999999 -1.70571 4.5486 40.27899 2.0649 16.5183 2.394 17.0868 -0.5685 17.6556 -4.3392 0.8079 -2.9925 -1.7058 -3.8304 -8.169599999999999 -0.1134 -1.3872 -0.4677 -2.7443999999999997 -1.0473000000000001 -4.0098 -1.0776000000000001 -2.0052 -5.6559 -1.5860999999999998 -7.3317000000000005 -0.8979C59.108999999999995 4.90407 60.9645 3.4977600000000004 59.1987 1.6723440000000003c-0.9320999999999999 -0.567246 -1.9394999999999998 -1.00041 -2.9922 -1.28694 -1.3455 -0.0860199 -2.6949 -0.0860199 -4.0401 0 -10.6944 -0.697959 -21.429299999999998 -0.44755049999999996 -32.07942 0.748164 -1.07724 0.179694 -3.26175 0.11969400000000001 -4.99746 0.41908200000000007 -2.3938800000000002 0.418776 -3.86019 1.256634 -4.81776 5.985 -0.6284700000000001 3.44112 -0.86784 7.93011 -1.16724 9.875219999999999C2.58105 56.8536 4.13706 46.080600000000004 2.0122739999999997 68.0454c-0.179388 1.257 0 2.9928 1.2569460000000001 2.6634 0.23937 0.2994 6.40407 1.0476 7.451309999999999 0 1.0472700000000001 -1.0476 1.13727 -3.9497999999999998 1.37664 -4.8777 0.45522000000000007 -2.4072 1.17795 -4.755599999999999 2.15451 -7.0023 0.9765300000000001 -2.2467 0.44877 0 0.71814 0 0.89787 0 1.8854099999999998 0.1794 2.33418 0.2094h13.3167c0.9576 0 3.2316 -0.26940000000000003 5.236800000000001 -0.3291 0.6638999999999999 0.07289999999999999 1.3233 0.1827 1.9748999999999999 0.3291 0 0.2394 -0.9873000000000001 8.9772 -1.0473000000000001 10.0548 -0.11220000000000001 0.7812000000000001 0.0576 1.5768 0.4788 2.2443 1.257 1.197 5.5959 0.4191 7.840199999999999 0.3591 0.8064 0 1.3104 -0.8727 0.9072 -1.5711000000000002 -0.18719999999999998 -0.324 -0.5331 -0.5235 -0.9072 -0.5235h-5.6856c0 -2.7531 1.2267 -7.3617 1.4664000000000001 -10.6233 0.1794 -2.3043 -0.7782 -3.1721999999999997 -2.9925 -3.4713000000000003 -2.2146 -0.2994 1.9748999999999999 0 -20.4687 0 -5.32653 0.06 -6.34407 -1.6458 -8.31918 13.316399999999998 -0.71817 -0.4191 -2.99235 0 -3.32142 0 -2.5735799999999998 0 -2.24451 0.8976000000000001 -2.00511 -0.4788 2.78295 -22.563299999999998 1.1969400000000001 -12.987300000000001 8.31918 -50.393460000000005 0.3891 -1.9151099999999999 0.71817 -6.3738 1.49604 -9.75552 0.7778400000000001 -3.3817500000000003 1.1972399999999999 -3.23175 2.7232499999999997 -3.41142 1.5260099999999999 -0.1797 3.2917500000000004 0 4.21959 -0.2394 10.49295 -1.14276 21.06285 -1.41306 31.60035 -0.8078699999999999 5.236800000000001 0 4.4592 -0.50877 4.0401 2.2145099999999998 -0.3291 2.03478 -7.0023 51.82956 -7.3017 53.864760000000004 -0.6585 4.3689 -1.7058 7.182 -1.9152 9.246599999999999 -0.1866 0.7776 0.2976 1.5579 1.0773 1.7358 0.5787 0 1.0473000000000001 -0.4689 1.0473000000000001 -1.0476 0 -2.9922 0.8679 -1.1373 2.9925 -16.817700000000002 0.8679 0.44880000000000003 1.3763999999999998 -0.9876 4.8777 -0.26940000000000003 0.3591 0 0.6881999999999999 0 0.7778999999999999 0.26940000000000003 1.7058 3.6207000000000003 -0.1794 11.1021 1.8255000000000001 12.927599999999998 2.6934 2.4236999999999997 9.1269 1.7952000000000001 10.2642 -2.3343 1.6758 -6.134399999999999 -6.5535 -50.90199 -7.899900000000001 -56.46792Z" clip-rule="evenodd" stroke-width="3"></path><path fill="#ffffff" fill-rule="evenodd" d="M17.03433 10.829369999999999 12.48594 36.774300000000004c-0.32937 2.4537 -4.03989 8.289 1.52604 9.815100000000001 5.33418 0.4485 10.68765 0.6282 16.03962 0.5388000000000001 3.5714999999999995 0.047099999999999996 7.117799999999999 0.6015 10.5336 1.6458 2.4351 0.07050000000000001 4.601100000000001 -1.5384000000000002 5.236800000000001 -3.8903999999999996 0.5388000000000001 -1.7055 0.5685 -3.8601 1.0176 -5.3565000000000005 2.2146 -7.212 2.3343 -14.57322 3.5613 -21.63549 0.7476 -4.48866 2.3040000000000003 -8.22948 -2.0652 -8.97765 -6.3954 -0.25131 -12.8004 -0.13131 -19.1817 0.3594 -14.064779999999999 0.0597 -11.52123 -2.5735799999999998 -12.11967 1.55601Zm29.924970000000002 0.56847c1.2867 0 0.5985 5.62593 0.5385 5.985 -0.06 0.3591 -4.0995 26.184060000000002 -5.6856 27.50076 -1.5860999999999998 1.3167 -1.3767 -0.8976000000000001 -11.610899999999999 -1.197 -15.261479999999999 -0.47850000000000004 -16.877489999999998 1.5561000000000003 -16.039649999999998 -2.2142999999999997 1.6160400000000001 -7.3017 -0.44877 6.4041 4.72806 -30.37386 2.18451 0.68847 21.87519 -0.20937 27.94989 0.2994h0.1197Z" clip-rule="evenodd" stroke-width="3"></path><path fill="#ffffff" fill-rule="evenodd" d="M18.59034 35.5773c3.1803300000000005 1.7604 6.835109999999999 2.4729 10.44399 2.0349 0.8063400000000001 0 1.31007 -0.873 0.90705 -1.5711000000000002 -0.18705 -0.32430000000000003 -0.53295 -0.5238 -0.90705 -0.5238 -1.73571 -0.2394 -7.032540000000001 -2.9925 -10.29429 -1.5860999999999998 -0.47877000000000003 0.2094 -0.65817 0.6881999999999999 -0.1497 1.6461Z" clip-rule="evenodd" stroke-width="3"></path><path fill="#ffffff" fill-rule="evenodd" d="M33.044700000000006 36.5646c0.9576 2.6034 5.985 1.7655 6.2544 0.4491 0.14939999999999998 -2.3043 -6.912599999999999 -2.1249000000000002 -6.2544 -0.4491Z" clip-rule="evenodd" stroke-width="3"></path><path fill="#ffffff" fill-rule="evenodd" d="M30.830399999999997 29.38257c0.8064 0 1.3100999999999998 -0.87276 0.9069 -1.5710099999999998 -0.1869 -0.32388 -0.5328 -0.52347 -0.9069 -0.52347 -1.7654699999999999 -0.2394 -7.0323 -2.9926500000000003 -10.29405 -1.55634 -0.47907 0.2097 -0.74817 0.68847 -0.1497 1.61601 3.17298 1.7804100000000003 6.834210000000001 2.49399 10.443750000000001 2.0348100000000002Z" clip-rule="evenodd" stroke-width="3"></path><path fill="#ffffff" fill-rule="evenodd" d="M40.9746 28.814099999999996c0.26940000000000003 -2.33418 -6.793200000000001 -2.15451 -6.224400000000001 -0.4788 0.9276 2.6037 6.0747 1.7955 6.224400000000001 0.4788Z" clip-rule="evenodd" stroke-width="3"></path><path fill="#ffffff" fill-rule="evenodd" d="M32.625299999999996 21.183390000000003c0.8064 0 1.3104 -0.87276 0.9072 -1.5710099999999998 -0.18719999999999998 -0.32418 -0.5328 -0.52377 -0.9072 -0.52377 -1.7652 -0.26940000000000003 -7.032150000000001 -2.99235 -10.3239 -1.5860400000000001 -0.47877000000000003 0.2094 -0.71817 0.6881700000000001 0 1.64571 3.1518300000000004 1.71921 6.755520000000001 2.4297 10.3239 2.03511Z" clip-rule="evenodd" stroke-width="3"></path><path fill="#ffffff" fill-rule="evenodd" d="M42.7704 20.58492c0.26940000000000003 -2.3041799999999997 -6.7928999999999995 -2.15481 -6.224400000000001 -0.4491 0.9279000000000001 2.60358 6.0747 1.76574 6.224400000000001 0.4491Z" clip-rule="evenodd" stroke-width="3"></path></svg>